<svg xmlns="http://www.w3.org/2000/svg" version="1.1" xmlns:xlink="http://www.w3.org/1999/xlink" xmlns:svgjs="http://svgjs.dev/svgjs" width="1000" height="1000" viewBox="0 0 1000 1000"><rect width="1000" height="1000" fill="#ffffff"></rect><g transform="matrix(0.7,0,0,0.7,149.57575759515424,345.9556172872144)"><svg viewBox="0 0 396 174" data-background-color="#ffffff" preserveAspectRatio="xMidYMid meet" height="439" width="1000" xmlns="http://www.w3.org/2000/svg" xmlns:xlink="http://www.w3.org/1999/xlink"><defs></defs><g id="tight-bounds" transform="matrix(1,0,0,1,0.24000001097306267,0.2238722181288466)"><svg viewBox="0 0 395.52 173.55281963990993" height="173.55281963990993" width="395.52"><g><svg viewBox="0 0 395.52000000000004 173.55281963990996" height="173.55281963990993" width="395.52"><g transform="matrix(1,0,0,1,0,104.79608119359285)"><svg viewBox="0 0 395.52000000000004 68.7567384463171" height="68.7567384463171" width="395.52000000000004"><g><svg viewBox="0 0 395.52000000000004 68.7567384463171" height="68.7567384463171" width="395.52000000000004"><g><svg viewBox="0 0 395.52000000000004 41.40305944180101" height="41.40305944180101" width="395.52000000000004"><g transform="matrix(1,0,0,1,0,0)"><svg width="395.52000000000004" viewBox="0.9800000190734863 -35.5 343.75 35.9900016784668" height="41.40305944180101" data-palette-color="#010c80"><path d="M35.33-35.01L35.33-28.66 21.34-28.66 21.34 0 14.99 0 14.99-28.66 0.98-28.66 0.98-35.01 35.33-35.01ZM68.77-20.7L68.77-14.31 48.73-14.31 48.73-20.7 68.77-20.7ZM71.63-6.35L71.63 0 48.73 0Q47.41 0 45.85-0.46 44.28-0.93 42.95-1.99 41.62-3.05 40.73-4.75 39.84-6.45 39.84-8.91L39.84-8.91 39.84-31.81Q39.84-32.47 40.09-33.06 40.33-33.64 40.76-34.08 41.18-34.52 41.77-34.77 42.36-35.01 43.04-35.01L43.04-35.01 71.63-35.01 71.63-28.66 46.19-28.66 46.19-8.91Q46.19-7.67 46.85-7.01 47.51-6.35 48.78-6.35L48.78-6.35 71.63-6.35ZM108.88-6.35L108.88 0 85.98 0Q85.1 0 84.09-0.21 83.08-0.42 82.09-0.85 81.1-1.29 80.2-1.99 79.29-2.69 78.6-3.67 77.9-4.66 77.49-5.97 77.07-7.28 77.07-8.91L77.07-8.91 77.07-26.1Q77.07-26.98 77.28-27.99 77.49-29 77.92-29.99 78.36-30.98 79.07-31.88 79.78-32.79 80.77-33.48 81.76-34.18 83.05-34.59 84.35-35.01 85.98-35.01L85.98-35.01 108.88-35.01 108.88-28.66 85.98-28.66Q84.74-28.66 84.08-28 83.42-27.34 83.42-26.05L83.42-26.05 83.42-8.91Q83.42-7.69 84.09-7.02 84.76-6.35 85.98-6.35L85.98-6.35 108.88-6.35ZM121.28-35.01L121.28-20.7 143.57-20.7 143.57-35.01 149.92-35.01 149.92 0 143.57 0 143.57-14.31 121.28-14.31 121.28 0 114.93 0 114.93-35.01 121.28-35.01ZM208.48-23.24L208.48-20.36Q208.48-18.19 207.95-16.48 207.41-14.77 206.49-13.46 205.58-12.16 204.38-11.23 203.19-10.3 201.88-9.72 200.57-9.13 199.24-8.86 197.91-8.59 196.74-8.59L196.74-8.59 182.38-8.59 182.38-14.94 196.74-14.94Q197.96-15.04 198.95-15.44 199.94-15.84 200.65-16.53 201.35-17.21 201.75-18.18 202.14-19.14 202.14-20.36L202.14-20.36 202.14-23.24Q202.01-24.44 201.62-25.44 201.23-26.44 200.56-27.15 199.89-27.86 198.94-28.26 197.99-28.66 196.74-28.66L196.74-28.66 182.43-28.66Q181.16-28.66 180.51-28 179.85-27.34 179.85-26.1L179.85-26.1 179.85 0 173.5 0 173.5-26.1Q173.5-28.54 174.39-30.25 175.28-31.96 176.61-33.01 177.94-34.06 179.5-34.53 181.07-35.01 182.38-35.01L182.38-35.01 196.74-35.01Q198.89-35.01 200.6-34.46 202.31-33.91 203.61-33 204.92-32.08 205.83-30.88 206.75-29.69 207.35-28.38 207.95-27.08 208.22-25.74 208.48-24.41 208.48-23.24L208.48-23.24ZM250.64-20.85L250.64-14.16Q250.64-10.96 249.55-8.28 248.45-5.59 246.49-3.64 244.54-1.68 241.87-0.6 239.19 0.49 236.04 0.49L236.04 0.49 227.45 0.49Q224.3 0.49 221.62-0.6 218.93-1.68 216.98-3.64 215.02-5.59 213.91-8.28 212.8-10.96 212.8-14.16L212.8-14.16 212.8-20.85Q212.8-24.02 213.91-26.72 215.02-29.42 216.98-31.36 218.93-33.3 221.62-34.4 224.3-35.5 227.45-35.5L227.45-35.5 236.04-35.5Q239.19-35.5 241.87-34.4 244.54-33.3 246.49-31.36 248.45-29.42 249.55-26.72 250.64-24.02 250.64-20.85L250.64-20.85ZM244.3-14.16L244.3-20.85Q244.3-22.73 243.7-24.26 243.1-25.78 242.01-26.87 240.93-27.95 239.4-28.55 237.88-29.15 236.04-29.15L236.04-29.15 227.45-29.15Q225.6-29.15 224.07-28.55 222.54-27.95 221.44-26.87 220.35-25.78 219.75-24.26 219.15-22.73 219.15-20.85L219.15-20.85 219.15-14.16Q219.15-12.28 219.75-10.75 220.35-9.23 221.44-8.14 222.54-7.06 224.07-6.46 225.6-5.86 227.45-5.86L227.45-5.86 236-5.86Q237.85-5.86 239.38-6.46 240.9-7.06 242-8.14 243.1-9.23 243.7-10.75 244.3-12.28 244.3-14.16L244.3-14.16ZM263.31-35.01L263.31 0 256.96 0 256.96-35.01 263.31-35.01ZM305.72-35.01L305.72-2.71Q305.72-2.03 305.46-1.44 305.2-0.85 304.78-0.43 304.35 0 303.76 0.24 303.18 0.49 302.52 0.49L302.52 0.49Q301.93 0.49 301.33 0.27 300.74 0.05 300.27-0.44L300.27-0.44 277.08-24.66 277.08 0 270.73 0 270.73-32.3Q270.73-33.28 271.28-34.07 271.83-34.86 272.69-35.25L272.69-35.25Q273.59-35.62 274.54-35.44 275.49-35.25 276.18-34.55L276.18-34.55 299.37-10.35 299.37-35.01 305.72-35.01ZM344.73-35.01L344.73-28.66 330.74-28.66 330.74 0 324.39 0 324.39-28.66 310.38-28.66 310.38-35.01 344.73-35.01Z" opacity="1" transform="matrix(1,0,0,1,0,0)" fill="#010c80" class="undefined-text-0" data-fill-palette-color="primary" id="text-0"></path></svg></g></svg></g><g transform="matrix(1,0,0,1,75.54432000000003,51.17732810258363)"><svg viewBox="0 0 244.43135999999998 17.579410343733475" height="17.579410343733475" width="244.43135999999998"><g transform="matrix(1,0,0,1,0,0)"><svg width="244.43135999999998" viewBox="0.45000001788139343 -33.5 472.6999816894531 34" height="17.579410343733475" data-palette-color="#050505"><path d="M14.9-0.5L14.9-0.5 15.15-0.5 15.15 0 8.05 0 8.05-0.5 8.3-0.5Q8.7-0.5 9-0.8 9.3-1.1 9.53-1.5 9.75-1.9 9.85-2.38 9.95-2.85 9.95-3.25L9.95-3.25 9.95-31.15 4.15-31.15Q3.35-31.15 2.75-30.8 2.15-30.45 1.75-29.93 1.35-29.4 1.15-28.78 0.95-28.15 0.95-27.55L0.95-27.55 0.45-27.55 0.45-33 22.9-33 22.9-27.55 22.4-27.55Q22.4-28.15 22.2-28.78 22-29.4 21.6-29.93 21.2-30.45 20.6-30.8 20-31.15 19.2-31.15L19.2-31.15 13.3-31.15 13.3-3.25Q13.3-2.85 13.4-2.38 13.5-1.9 13.73-1.5 13.95-1.1 14.23-0.8 14.5-0.5 14.9-0.5ZM45.6 0L45.6-0.5 45.85-0.5Q46.2-0.5 46.5-0.78 46.8-1.05 47.02-1.48 47.25-1.9 47.35-2.38 47.45-2.85 47.45-3.25L47.45-3.25 47.45-16.85 31.45-16.85 31.45-3.25Q31.45-2.85 31.55-2.38 31.65-1.9 31.85-1.5 32.05-1.1 32.32-0.8 32.6-0.5 33-0.5L33-0.5 33.25-0.5 33.25 0 26.25 0 26.25-0.5 26.5-0.5Q26.85-0.5 27.15-0.78 27.45-1.05 27.67-1.48 27.9-1.9 28-2.38 28.1-2.85 28.1-3.25L28.1-3.25 28.1-29.9Q28.1-30.25 28-30.7 27.9-31.15 27.7-31.55 27.5-31.95 27.2-32.23 26.9-32.5 26.5-32.5L26.5-32.5 26.25-32.5 26.25-33 33.25-33 33.25-32.5 33-32.5Q32.6-32.5 32.3-32.23 32-31.95 31.82-31.55 31.65-31.15 31.55-30.7 31.45-30.25 31.45-29.9L31.45-29.9 31.45-18.6 47.45-18.6 47.45-29.9Q47.45-30.25 47.35-30.7 47.25-31.15 47.05-31.55 46.85-31.95 46.55-32.23 46.25-32.5 45.85-32.5L45.85-32.5 45.6-32.5 45.6-33 52.6-33 52.6-32.5 52.35-32.5Q51.95-32.5 51.65-32.23 51.35-31.95 51.17-31.55 51-31.15 50.9-30.7 50.8-30.25 50.8-29.9L50.8-29.9 50.8-3.25Q50.8-2.85 50.92-2.38 51.05-1.9 51.25-1.5 51.45-1.1 51.72-0.8 52-0.5 52.35-0.5L52.35-0.5 52.6-0.5 52.6 0 45.6 0ZM56.75 0L56.75-0.5 57-0.5Q57.4-0.5 57.7-0.78 58-1.05 58.22-1.45 58.45-1.85 58.57-2.3 58.7-2.75 58.7-3.15L58.7-3.15 58.7-29.9Q58.7-30.25 58.57-30.7 58.45-31.15 58.22-31.55 58-31.95 57.7-32.23 57.4-32.5 57-32.5L57-32.5 56.75-32.5 56.75-33 76-33 76-28.35 75.5-28.35Q75.4-29.5 74.59-30.38 73.8-31.25 72.09-31.25L72.09-31.25 62.05-31.25 62.05-18.6 70.34-18.6Q71.5-18.6 72.27-19.3 73.05-20 73.05-20.95L73.05-20.95 73.55-20.95 73.55-14.7 73.05-14.7Q73.05-15.6 72.3-16.25 71.55-16.9 70.34-16.9L70.34-16.9 62.05-16.9 62.05-1.75 73-1.75Q73.95-1.75 74.65-2.2 75.34-2.65 75.82-3.28 76.3-3.9 76.52-4.63 76.75-5.35 76.75-5.85L76.75-5.85 77.25-5.85 77.25 0 56.75 0ZM93.99 0L93.99-0.5 94.24-0.5Q94.59-0.5 94.89-0.8 95.19-1.1 95.42-1.5 95.64-1.9 95.74-2.38 95.84-2.85 95.84-3.25L95.84-3.25 95.84-29.85Q95.84-30.2 95.74-30.65 95.64-31.1 95.42-31.53 95.19-31.95 94.87-32.23 94.54-32.5 94.14-32.5L94.14-32.5 93.89-32.5 93.89-33 102.09-33Q106.74-33 109.37-30.95 111.99-28.9 111.99-25.5L111.99-25.5Q111.99-24.05 111.49-22.9 110.99-21.75 110.22-20.85 109.44-19.95 108.54-19.33 107.64-18.7 106.84-18.3L106.84-18.3Q108.94-17.9 110.34-16.95 111.74-16 112.62-14.78 113.49-13.55 113.84-12.15 114.19-10.75 114.19-9.4L114.19-9.4Q114.19-6.8 113.24-5.03 112.29-3.25 110.72-2.13 109.14-1 107.12-0.5 105.09 0 102.94 0L102.94 0 93.99 0ZM110.79-8.55L110.79-9.1Q110.39-12.95 108.19-15.05 105.99-17.15 101.99-17.15L101.99-17.15 99.19-17.15 99.19-1.65 102.09-1.65Q106.14-1.65 108.47-3.48 110.79-5.3 110.79-8.55L110.79-8.55ZM108.74-24.7L108.74-25.05Q108.59-27.95 106.72-29.65 104.84-31.35 101.69-31.35L101.69-31.35 99.19-31.35 99.19-18.75 101.79-18.75Q103.89-18.75 105.22-19.3 106.54-19.85 107.34-20.73 108.14-21.6 108.44-22.65 108.74-23.7 108.74-24.7L108.74-24.7ZM118.44 0L118.44-0.5 118.69-0.5Q119.09-0.5 119.39-0.78 119.69-1.05 119.91-1.45 120.14-1.85 120.26-2.3 120.39-2.75 120.39-3.15L120.39-3.15 120.39-29.9Q120.39-30.25 120.26-30.7 120.14-31.15 119.91-31.55 119.69-31.95 119.39-32.23 119.09-32.5 118.69-32.5L118.69-32.5 118.44-32.5 118.44-33 137.69-33 137.69-28.35 137.19-28.35Q137.09-29.5 136.29-30.38 135.49-31.25 133.79-31.25L133.79-31.25 123.74-31.25 123.74-18.6 132.04-18.6Q133.19-18.6 133.96-19.3 134.74-20 134.74-20.95L134.74-20.95 135.24-20.95 135.24-14.7 134.74-14.7Q134.74-15.6 133.99-16.25 133.24-16.9 132.04-16.9L132.04-16.9 123.74-16.9 123.74-1.75 134.69-1.75Q135.64-1.75 136.34-2.2 137.04-2.65 137.51-3.28 137.99-3.9 138.21-4.63 138.44-5.35 138.44-5.85L138.44-5.85 138.94-5.85 138.94 0 118.44 0ZM162.94-8.85L162.94-8.85Q162.94-6.35 161.94-4.58 160.94-2.8 159.36-1.7 157.78-0.6 155.81-0.1 153.84 0.4 151.88 0.4L151.88 0.4Q149.88 0.4 148.44 0 146.99-0.4 145.78-0.75L145.78-0.75Q144.99-1 144.34-1.18 143.69-1.35 143.03-1.35L143.03-1.35 143.03-7.05 143.53-7.05Q143.53-5.15 144.51-4.03 145.49-2.9 146.78-2.3 148.09-1.7 149.38-1.53 150.69-1.35 151.28-1.35L151.28-1.35Q153.44-1.35 154.99-1.98 156.53-2.6 157.53-3.63 158.53-4.65 159.01-5.9 159.49-7.15 159.49-8.45L159.49-8.45Q159.49-10.1 158.78-11.23 158.09-12.35 156.96-13.2 155.84-14.05 154.38-14.65 152.94-15.25 151.44-15.85L151.44-15.85Q149.74-16.5 148.09-17.2 146.44-17.9 145.13-18.93 143.84-19.95 143.03-21.38 142.24-22.8 142.24-24.9L142.24-24.9Q142.24-27.1 143.09-28.73 143.94-30.35 145.36-31.4 146.78-32.45 148.61-32.98 150.44-33.5 152.34-33.5L152.34-33.5Q153.63-33.5 154.78-33.33 155.94-33.15 156.99-32.9L156.99-32.9Q157.84-32.7 158.63-32.58 159.44-32.45 160.19-32.45L160.19-32.45 160.19-27.3 159.69-27.3Q159.59-29.9 157.63-30.83 155.69-31.75 152.24-31.75L152.24-31.75Q150.24-31.75 148.96-31.08 147.69-30.4 146.94-29.43 146.19-28.45 145.91-27.33 145.63-26.2 145.63-25.35L145.63-25.35Q145.63-23.95 146.26-22.95 146.88-21.95 147.94-21.2 148.99-20.45 150.36-19.85 151.74-19.25 153.24-18.7L153.24-18.7Q154.94-18.05 156.69-17.3 158.44-16.55 159.81-15.45 161.19-14.35 162.06-12.75 162.94-11.15 162.94-8.85ZM177.98-0.5L177.98-0.5 178.23-0.5 178.23 0 171.13 0 171.13-0.5 171.38-0.5Q171.78-0.5 172.08-0.8 172.38-1.1 172.61-1.5 172.83-1.9 172.93-2.38 173.03-2.85 173.03-3.25L173.03-3.25 173.03-31.15 167.23-31.15Q166.43-31.15 165.83-30.8 165.23-30.45 164.83-29.93 164.43-29.4 164.23-28.78 164.03-28.15 164.03-27.55L164.03-27.55 163.53-27.55 163.53-33 185.98-33 185.98-27.55 185.48-27.55Q185.48-28.15 185.28-28.78 185.08-29.4 184.68-29.93 184.28-30.45 183.68-30.8 183.08-31.15 182.28-31.15L182.28-31.15 176.38-31.15 176.38-3.25Q176.38-2.85 176.48-2.38 176.58-1.9 176.81-1.5 177.03-1.1 177.31-0.8 177.58-0.5 177.98-0.5ZM218.58-33.5L218.58-33.5Q222.48-33.5 225.58-32.13 228.68-30.75 230.85-28.43 233.03-26.1 234.2-23.03 235.38-19.95 235.38-16.6L235.38-16.6Q235.38-12.85 234-9.7 232.63-6.55 230.23-4.3 227.83-2.05 224.65-0.78 221.48 0.5 217.88 0.5L217.88 0.5Q214.03 0.5 210.95-0.9 207.88-2.3 205.75-4.6 203.63-6.9 202.48-9.9 201.33-12.9 201.33-16.15L201.33-16.15Q201.33-19.35 202.48-22.48 203.63-25.6 205.85-28.05 208.08-30.5 211.28-32 214.48-33.5 218.58-33.5ZM218.53-1.25L218.53-1.25Q221.88-1.4 224.4-2.78 226.93-4.15 228.63-6.28 230.33-8.4 231.15-10.95 231.98-13.5 231.98-16L231.98-16Q231.98-18.75 230.98-21.55 229.98-24.35 228.13-26.63 226.28-28.9 223.7-30.33 221.13-31.75 217.93-31.75L217.93-31.75Q214.83-31.75 212.38-30.38 209.93-29 208.2-26.85 206.48-24.7 205.58-22.05 204.68-19.4 204.68-16.85L204.68-16.85Q204.68-14.1 205.73-11.33 206.78-8.55 208.63-6.3 210.48-4.05 213-2.65 215.53-1.25 218.53-1.25ZM246.58-0.5L246.58-0.5 246.83-0.5 246.83 0 239.78 0 239.78-0.5 240.03-0.5Q240.38-0.5 240.68-0.8 240.98-1.1 241.2-1.5 241.43-1.9 241.53-2.38 241.63-2.85 241.63-3.25L241.63-3.25 241.63-29.9Q241.63-30.25 241.53-30.7 241.43-31.15 241.2-31.55 240.98-31.95 240.68-32.23 240.38-32.5 240.03-32.5L240.03-32.5 239.78-32.5 239.78-33 248.48-33Q253.48-33 256.2-31.05 258.93-29.1 258.93-25.3L258.93-25.3Q258.93-23.4 258.3-21.98 257.68-20.55 256.63-19.53 255.58-18.5 254.15-17.88 252.73-17.25 251.13-16.95L251.13-16.95 254.73-11.45Q256.03-9.45 257.38-7.53 258.73-5.6 260.03-3.55L260.03-3.55Q260.38-3.05 260.8-2.5 261.23-1.95 261.7-1.5 262.18-1.05 262.7-0.78 263.23-0.5 263.78-0.5L263.78-0.5 263.78 0 261.63 0Q259.63 0 258.35-0.98 257.08-1.95 256.23-3.25L256.23-3.25Q253.98-6.55 251.75-9.95 249.53-13.35 247.33-16.65L247.33-16.65Q246.78-16.7 246.15-16.78 245.53-16.85 244.98-16.95L244.98-16.95 244.98-3.25Q244.98-2.85 245.08-2.38 245.18-1.9 245.4-1.5 245.63-1.1 245.9-0.8 246.18-0.5 246.58-0.5ZM245.73-31.3L244.98-31.3 244.98-18.6 245.23-18.6Q245.63-18.55 246.5-18.53 247.38-18.5 248.68-18.5L248.68-18.5Q249.73-18.5 250.9-18.82 252.08-19.15 253.1-19.93 254.13-20.7 254.8-21.95 255.48-23.2 255.48-25.1L255.48-25.1Q255.48-27 254.75-28.2 254.03-29.4 252.75-30.1 251.48-30.8 249.68-31.05 247.88-31.3 245.73-31.3L245.73-31.3ZM285.02-0.5L285.02-0.5 285.27-0.5 285.27 0 279.72 0 279.72-0.5 279.97-0.5Q280.32-0.5 280.65-0.8 280.97-1.1 281.17-1.5 281.37-1.9 281.5-2.38 281.62-2.85 281.62-3.25L281.62-3.25 281.62-29.9Q281.62-30.25 281.55-30.7 281.47-31.15 281.27-31.55 281.07-31.95 280.72-32.23 280.37-32.5 279.87-32.5L279.87-32.5 279.62-32.5 279.62-33 284.67-33 302.82-4.4 302.82-29.9Q302.82-30.25 302.7-30.7 302.57-31.15 302.35-31.55 302.12-31.95 301.82-32.23 301.52-32.5 301.12-32.5L301.12-32.5 300.87-32.5 300.87-33 306.47-33 306.47-32.5 306.22-32.5Q305.82-32.5 305.52-32.23 305.22-31.95 305-31.55 304.77-31.15 304.67-30.7 304.57-30.25 304.57-29.9L304.57-29.9 304.57 0 301.47 0 283.37-28.7 283.37-3.25Q283.37-2.85 283.47-2.38 283.57-1.9 283.8-1.5 284.02-1.1 284.32-0.8 284.62-0.5 285.02-0.5ZM328.02-33.5L328.02-33.5Q331.92-33.5 335.02-32.13 338.12-30.75 340.29-28.43 342.47-26.1 343.64-23.03 344.82-19.95 344.82-16.6L344.82-16.6Q344.82-12.85 343.44-9.7 342.07-6.55 339.67-4.3 337.27-2.05 334.09-0.78 330.92 0.5 327.32 0.5L327.32 0.5Q323.47 0.5 320.39-0.9 317.32-2.3 315.19-4.6 313.07-6.9 311.92-9.9 310.77-12.9 310.77-16.15L310.77-16.15Q310.77-19.35 311.92-22.48 313.07-25.6 315.29-28.05 317.52-30.5 320.72-32 323.92-33.5 328.02-33.5ZM327.97-1.25L327.97-1.25Q331.32-1.4 333.84-2.78 336.37-4.15 338.07-6.28 339.77-8.4 340.59-10.95 341.42-13.5 341.42-16L341.42-16Q341.42-18.75 340.42-21.55 339.42-24.35 337.57-26.63 335.72-28.9 333.14-30.33 330.57-31.75 327.37-31.75L327.37-31.75Q324.27-31.75 321.82-30.38 319.37-29 317.64-26.85 315.92-24.7 315.02-22.05 314.12-19.4 314.12-16.85L314.12-16.85Q314.12-14.1 315.17-11.33 316.22-8.55 318.07-6.3 319.92-4.05 322.44-2.65 324.97-1.25 327.97-1.25ZM359.12-0.5L359.12-0.5 359.37-0.5 359.37 0 352.27 0 352.27-0.5 352.52-0.5Q352.92-0.5 353.22-0.8 353.52-1.1 353.74-1.5 353.97-1.9 354.07-2.38 354.17-2.85 354.17-3.25L354.17-3.25 354.17-31.15 348.37-31.15Q347.57-31.15 346.97-30.8 346.37-30.45 345.97-29.93 345.57-29.4 345.37-28.78 345.17-28.15 345.17-27.55L345.17-27.55 344.67-27.55 344.67-33 367.12-33 367.12-27.55 366.62-27.55Q366.62-28.15 366.42-28.78 366.22-29.4 365.82-29.93 365.42-30.45 364.82-30.8 364.22-31.15 363.42-31.15L363.42-31.15 357.52-31.15 357.52-3.25Q357.52-2.85 357.62-2.38 357.72-1.9 357.94-1.5 358.17-1.1 358.44-0.8 358.72-0.5 359.12-0.5ZM389.81 0L389.81-0.5 390.06-0.5Q390.41-0.5 390.71-0.78 391.01-1.05 391.24-1.48 391.46-1.9 391.56-2.38 391.66-2.85 391.66-3.25L391.66-3.25 391.66-16.85 375.66-16.85 375.66-3.25Q375.66-2.85 375.76-2.38 375.86-1.9 376.06-1.5 376.26-1.1 376.54-0.8 376.81-0.5 377.21-0.5L377.21-0.5 377.46-0.5 377.46 0 370.46 0 370.46-0.5 370.71-0.5Q371.06-0.5 371.36-0.78 371.66-1.05 371.89-1.48 372.11-1.9 372.21-2.38 372.31-2.85 372.31-3.25L372.31-3.25 372.31-29.9Q372.31-30.25 372.21-30.7 372.11-31.15 371.91-31.55 371.71-31.95 371.41-32.23 371.11-32.5 370.71-32.5L370.71-32.5 370.46-32.5 370.46-33 377.46-33 377.46-32.5 377.21-32.5Q376.81-32.5 376.51-32.23 376.21-31.95 376.04-31.55 375.86-31.15 375.76-30.7 375.66-30.25 375.66-29.9L375.66-29.9 375.66-18.6 391.66-18.6 391.66-29.9Q391.66-30.25 391.56-30.7 391.46-31.15 391.26-31.55 391.06-31.95 390.76-32.23 390.46-32.5 390.06-32.5L390.06-32.5 389.81-32.5 389.81-33 396.81-33 396.81-32.5 396.56-32.5Q396.16-32.5 395.86-32.23 395.56-31.95 395.39-31.55 395.21-31.15 395.11-30.7 395.01-30.25 395.01-29.9L395.01-29.9 395.01-3.25Q395.01-2.85 395.14-2.38 395.26-1.9 395.46-1.5 395.66-1.1 395.94-0.8 396.21-0.5 396.56-0.5L396.56-0.5 396.81-0.5 396.81 0 389.81 0ZM401.16-32.5L401.16-33 408.31-33 408.31-32.5 408.06-32.5Q407.71-32.5 407.41-32.23 407.11-31.95 406.91-31.58 406.71-31.2 406.59-30.73 406.46-30.25 406.46-29.9L406.46-29.9 406.46-3.25Q406.46-2.85 406.56-2.38 406.66-1.9 406.89-1.5 407.11-1.1 407.39-0.8 407.66-0.5 408.06-0.5L408.06-0.5 408.31-0.5 408.31 0 401.16 0 401.16-0.5 401.41-0.5Q401.81-0.5 402.11-0.78 402.41-1.05 402.64-1.48 402.86-1.9 402.96-2.38 403.06-2.85 403.06-3.25L403.06-3.25 403.06-29.9Q403.06-30.25 402.96-30.7 402.86-31.15 402.64-31.55 402.41-31.95 402.11-32.23 401.81-32.5 401.41-32.5L401.41-32.5 401.16-32.5ZM418.36-0.5L418.36-0.5 418.61-0.5 418.61 0 413.06 0 413.06-0.5 413.31-0.5Q413.66-0.5 413.98-0.8 414.31-1.1 414.51-1.5 414.71-1.9 414.83-2.38 414.96-2.85 414.96-3.25L414.96-3.25 414.96-29.9Q414.96-30.25 414.88-30.7 414.81-31.15 414.61-31.55 414.41-31.95 414.06-32.23 413.71-32.5 413.21-32.5L413.21-32.5 412.96-32.5 412.96-33 418.01-33 436.16-4.4 436.16-29.9Q436.16-30.25 436.03-30.7 435.91-31.15 435.68-31.55 435.46-31.95 435.16-32.23 434.86-32.5 434.46-32.5L434.46-32.5 434.21-32.5 434.21-33 439.81-33 439.81-32.5 439.56-32.5Q439.16-32.5 438.86-32.23 438.56-31.95 438.33-31.55 438.11-31.15 438.01-30.7 437.91-30.25 437.91-29.9L437.91-29.9 437.91 0 434.81 0 416.71-28.7 416.71-3.25Q416.71-2.85 416.81-2.38 416.91-1.9 417.13-1.5 417.36-1.1 417.66-0.8 417.96-0.5 418.36-0.5ZM466-16.9L466-17.4 473.15-17.4 473.15-16.9 472.9-16.9Q472.5-16.9 472.2-16.63 471.9-16.35 471.7-15.95 471.5-15.55 471.38-15.1 471.25-14.65 471.25-14.3L471.25-14.3 471.25-0.9Q470.36-0.55 469.2-0.3 468.06-0.05 466.81 0.13 465.56 0.3 464.25 0.4 462.95 0.5 461.86 0.5L461.86 0.5Q457.36 0.5 454-1 450.65-2.5 448.45-4.93 446.25-7.35 445.18-10.4 444.11-13.45 444.11-16.55L444.11-16.55Q444.11-19.65 445.18-22.7 446.25-25.75 448.48-28.15 450.7-30.55 454.08-32.02 457.45-33.5 462.11-33.5L462.11-33.5Q463.86-33.5 465.36-33.2 466.86-32.9 468-32.65L468-32.65Q468.65-32.5 469.13-32.38 469.61-32.25 469.95-32.25L469.95-32.25 470.4-32.25 470.4-26.95 469.9-26.95Q469.61-28.5 468.73-29.45 467.86-30.4 466.7-30.9 465.56-31.4 464.28-31.58 463-31.75 461.9-31.75L461.9-31.75Q458.15-31.75 455.4-30.43 452.65-29.1 450.9-27 449.15-24.9 448.31-22.28 447.45-19.65 447.45-17.05L447.45-17.05Q447.45-14.15 448.56-11.33 449.65-8.5 451.65-6.28 453.65-4.05 456.48-2.68 459.31-1.3 462.75-1.3L462.75-1.3Q463.7-1.3 465.11-1.53 466.5-1.75 467.9-2.55L467.9-2.55 467.9-14.3Q467.9-14.65 467.81-15.1 467.7-15.55 467.48-15.95 467.25-16.35 466.95-16.63 466.65-16.9 466.25-16.9L466.25-16.9 466-16.9Z" opacity="1" transform="matrix(1,0,0,1,0,0)" fill="#050505" class="undefined-text-1" data-fill-palette-color="secondary" id="text-1"></path></svg></g></svg></g></svg></g></svg></g><g transform="matrix(1,0,0,1,102.97250305734156,0)"><svg viewBox="0 0 189.57499388531693 95.02181253281024" height="95.02181253281024" width="189.57499388531693"><g><svg xmlns="http://www.w3.org/2000/svg" xmlns:xlink="http://www.w3.org/1999/xlink" xml:space="preserve" style="shape-rendering:geometricPrecision;text-rendering:geometricPrecision;image-rendering:optimizeQuality;" viewBox="0.0000020265579223632812 0.0000027120113372802734 14.727499008178711 7.38195276260376" x="0" y="0" fill-rule="evenodd" clip-rule="evenodd" width="189.57499388531693" height="95.02181253281024" class="icon-icon-0" data-fill-palette-color="accent" id="icon-0"><g fill="#010c80" data-fill-palette-color="accent"><path class="" d="M1.757 3.091c-0.313 0.444-0.296 1.331-0.417 1.95-0.153 0.784-0.711 1.203-1.34 1.534 0.188-0.771 0.348-1.542 0.412-2.313 0.078-0.953-0.06-0.891 0.767-1.575 1.159-0.961 3.04-1.741 5.848-2.29 2.456-0.406 5.049-0.453 7.701-0.351-0.89 1.809-3.733 1.961-7.203 1.581-1.811 0.02-3.495-0.488-5.768 1.464z m8.33 2.781c-3.895 2.038-7.803-2.284-9.165 0.688 2.104-1.831 5.079 3.183 9.165-0.688z m2.489-2.547c-4.49 2.72-9.502-0.792-10.907 1.859 3.412-1.235 7.765 2.753 10.907-1.859z m0.834-1.478c-3.944 1.761-10.043-1.402-11.565 2.239 3.106-1.808 8.446 1.438 11.565-2.239z" fill="#010c80" data-fill-palette-color="accent"></path></g></svg></g></svg></g><g></g></svg></g></svg><rect width="395.52" height="173.55281963990993" fill="none" stroke="none" visibility="hidden"></rect></g></svg></g></svg>